<mxfile host="app.diagrams.net" modified="2022-08-30T04:24:22.594Z" agent="5.0 (X11; Linux x86_64) AppleWebKit/537.36 (KHTML, like Gecko) Chrome/104.0.5112.102 Safari/537.36" etag="i1I0O-waJCYPalsg-_bd" version="20.2.7" type="github">
  <diagram id="C5RBs43oDa-KdzZeNtuy" name="Page-1">
    <mxGraphModel dx="1996" dy="465" grid="1" gridSize="10" guides="1" tooltips="1" connect="1" arrows="1" fold="1" page="1" pageScale="1" pageWidth="850" pageHeight="1100" math="0" shadow="0">
      <root>
        <mxCell id="WIyWlLk6GJQsqaUBKTNV-0" />
        <mxCell id="WIyWlLk6GJQsqaUBKTNV-1" parent="WIyWlLk6GJQsqaUBKTNV-0" />
        <mxCell id="zVv1hQ3TjcT8sucu5yJ2-2" value="" style="edgeStyle=orthogonalEdgeStyle;rounded=0;orthogonalLoop=1;jettySize=auto;html=1;" edge="1" parent="WIyWlLk6GJQsqaUBKTNV-1" source="zVv1hQ3TjcT8sucu5yJ2-0" target="zVv1hQ3TjcT8sucu5yJ2-1">
          <mxGeometry relative="1" as="geometry" />
        </mxCell>
        <mxCell id="zVv1hQ3TjcT8sucu5yJ2-0" value="Inicio" style="ellipse;whiteSpace=wrap;html=1;" vertex="1" parent="WIyWlLk6GJQsqaUBKTNV-1">
          <mxGeometry x="-830" y="30" width="120" height="80" as="geometry" />
        </mxCell>
        <mxCell id="zVv1hQ3TjcT8sucu5yJ2-4" value="" style="edgeStyle=orthogonalEdgeStyle;rounded=0;orthogonalLoop=1;jettySize=auto;html=1;" edge="1" parent="WIyWlLk6GJQsqaUBKTNV-1" source="zVv1hQ3TjcT8sucu5yJ2-1" target="zVv1hQ3TjcT8sucu5yJ2-3">
          <mxGeometry relative="1" as="geometry" />
        </mxCell>
        <mxCell id="zVv1hQ3TjcT8sucu5yJ2-1" value="Llenar un tubo de ensayo de la sustancia problema junto con un capilar sellado y un termomentro" style="whiteSpace=wrap;html=1;" vertex="1" parent="WIyWlLk6GJQsqaUBKTNV-1">
          <mxGeometry x="-630" y="32.5" width="120" height="87.5" as="geometry" />
        </mxCell>
        <mxCell id="zVv1hQ3TjcT8sucu5yJ2-6" value="" style="edgeStyle=orthogonalEdgeStyle;rounded=0;orthogonalLoop=1;jettySize=auto;html=1;" edge="1" parent="WIyWlLk6GJQsqaUBKTNV-1" source="zVv1hQ3TjcT8sucu5yJ2-3" target="zVv1hQ3TjcT8sucu5yJ2-5">
          <mxGeometry relative="1" as="geometry" />
        </mxCell>
        <mxCell id="zVv1hQ3TjcT8sucu5yJ2-3" value="Colocar el tubo de ensayo en un beaker lleno de agua" style="whiteSpace=wrap;html=1;" vertex="1" parent="WIyWlLk6GJQsqaUBKTNV-1">
          <mxGeometry x="-430" y="45" width="120" height="60" as="geometry" />
        </mxCell>
        <mxCell id="zVv1hQ3TjcT8sucu5yJ2-8" value="" style="edgeStyle=orthogonalEdgeStyle;rounded=0;orthogonalLoop=1;jettySize=auto;html=1;" edge="1" parent="WIyWlLk6GJQsqaUBKTNV-1" source="zVv1hQ3TjcT8sucu5yJ2-5" target="zVv1hQ3TjcT8sucu5yJ2-7">
          <mxGeometry relative="1" as="geometry" />
        </mxCell>
        <mxCell id="zVv1hQ3TjcT8sucu5yJ2-5" value="colocar el beaker en una plancha de calentamiento y mezclar mediante un agitador magnetico" style="whiteSpace=wrap;html=1;" vertex="1" parent="WIyWlLk6GJQsqaUBKTNV-1">
          <mxGeometry x="-230" y="30" width="120" height="75" as="geometry" />
        </mxCell>
        <mxCell id="zVv1hQ3TjcT8sucu5yJ2-10" value="" style="edgeStyle=orthogonalEdgeStyle;rounded=0;orthogonalLoop=1;jettySize=auto;html=1;" edge="1" parent="WIyWlLk6GJQsqaUBKTNV-1" source="zVv1hQ3TjcT8sucu5yJ2-7" target="zVv1hQ3TjcT8sucu5yJ2-9">
          <mxGeometry relative="1" as="geometry" />
        </mxCell>
        <mxCell id="zVv1hQ3TjcT8sucu5yJ2-7" value="Registrar la temperatura de ebullición cuando se observen burbujas en el capilar" style="whiteSpace=wrap;html=1;" vertex="1" parent="WIyWlLk6GJQsqaUBKTNV-1">
          <mxGeometry x="-230" y="192.5" width="120" height="67.5" as="geometry" />
        </mxCell>
        <mxCell id="zVv1hQ3TjcT8sucu5yJ2-12" value="" style="edgeStyle=orthogonalEdgeStyle;rounded=0;orthogonalLoop=1;jettySize=auto;html=1;" edge="1" parent="WIyWlLk6GJQsqaUBKTNV-1" source="zVv1hQ3TjcT8sucu5yJ2-9" target="zVv1hQ3TjcT8sucu5yJ2-11">
          <mxGeometry relative="1" as="geometry" />
        </mxCell>
        <mxCell id="zVv1hQ3TjcT8sucu5yJ2-9" value="Detener la plancha de calentamiento." style="whiteSpace=wrap;html=1;" vertex="1" parent="WIyWlLk6GJQsqaUBKTNV-1">
          <mxGeometry x="-430" y="196.25" width="120" height="60" as="geometry" />
        </mxCell>
        <mxCell id="zVv1hQ3TjcT8sucu5yJ2-14" value="" style="edgeStyle=orthogonalEdgeStyle;rounded=0;orthogonalLoop=1;jettySize=auto;html=1;" edge="1" parent="WIyWlLk6GJQsqaUBKTNV-1" source="zVv1hQ3TjcT8sucu5yJ2-11" target="zVv1hQ3TjcT8sucu5yJ2-13">
          <mxGeometry relative="1" as="geometry" />
        </mxCell>
        <mxCell id="zVv1hQ3TjcT8sucu5yJ2-11" value="Llenar un cuarto de un capilar con la sustancia problema." style="whiteSpace=wrap;html=1;" vertex="1" parent="WIyWlLk6GJQsqaUBKTNV-1">
          <mxGeometry x="-630" y="196.25" width="120" height="60" as="geometry" />
        </mxCell>
        <mxCell id="zVv1hQ3TjcT8sucu5yJ2-16" value="" style="edgeStyle=orthogonalEdgeStyle;rounded=0;orthogonalLoop=1;jettySize=auto;html=1;" edge="1" parent="WIyWlLk6GJQsqaUBKTNV-1" source="zVv1hQ3TjcT8sucu5yJ2-13" target="zVv1hQ3TjcT8sucu5yJ2-15">
          <mxGeometry relative="1" as="geometry" />
        </mxCell>
        <mxCell id="zVv1hQ3TjcT8sucu5yJ2-13" value="Atar el capilar a un termomentro y sumergir en un beaker con aceite mineral" style="whiteSpace=wrap;html=1;" vertex="1" parent="WIyWlLk6GJQsqaUBKTNV-1">
          <mxGeometry x="-830" y="180" width="120" height="76.25" as="geometry" />
        </mxCell>
        <mxCell id="zVv1hQ3TjcT8sucu5yJ2-18" value="" style="edgeStyle=orthogonalEdgeStyle;rounded=0;orthogonalLoop=1;jettySize=auto;html=1;" edge="1" parent="WIyWlLk6GJQsqaUBKTNV-1" source="zVv1hQ3TjcT8sucu5yJ2-15" target="zVv1hQ3TjcT8sucu5yJ2-17">
          <mxGeometry relative="1" as="geometry" />
        </mxCell>
        <mxCell id="zVv1hQ3TjcT8sucu5yJ2-15" value="Calentar gradualmente&amp;nbsp; y tomarar las temperaturas en la que inicia y termina el cambio de estado." style="whiteSpace=wrap;html=1;" vertex="1" parent="WIyWlLk6GJQsqaUBKTNV-1">
          <mxGeometry x="-830" y="336.25" width="120" height="93.75" as="geometry" />
        </mxCell>
        <mxCell id="zVv1hQ3TjcT8sucu5yJ2-20" value="" style="edgeStyle=orthogonalEdgeStyle;rounded=0;orthogonalLoop=1;jettySize=auto;html=1;" edge="1" parent="WIyWlLk6GJQsqaUBKTNV-1" source="zVv1hQ3TjcT8sucu5yJ2-17" target="zVv1hQ3TjcT8sucu5yJ2-19">
          <mxGeometry relative="1" as="geometry" />
        </mxCell>
        <mxCell id="zVv1hQ3TjcT8sucu5yJ2-17" value="Registrar el intervalo encontrado" style="whiteSpace=wrap;html=1;" vertex="1" parent="WIyWlLk6GJQsqaUBKTNV-1">
          <mxGeometry x="-630" y="353.125" width="120" height="60" as="geometry" />
        </mxCell>
        <mxCell id="zVv1hQ3TjcT8sucu5yJ2-22" value="" style="edgeStyle=orthogonalEdgeStyle;rounded=0;orthogonalLoop=1;jettySize=auto;html=1;" edge="1" parent="WIyWlLk6GJQsqaUBKTNV-1" source="zVv1hQ3TjcT8sucu5yJ2-19" target="zVv1hQ3TjcT8sucu5yJ2-21">
          <mxGeometry relative="1" as="geometry" />
        </mxCell>
        <mxCell id="zVv1hQ3TjcT8sucu5yJ2-19" value="Prestar atención a la demostración con el Fusiómetro" style="whiteSpace=wrap;html=1;" vertex="1" parent="WIyWlLk6GJQsqaUBKTNV-1">
          <mxGeometry x="-430" y="353.125" width="120" height="60" as="geometry" />
        </mxCell>
        <mxCell id="zVv1hQ3TjcT8sucu5yJ2-24" value="" style="edgeStyle=orthogonalEdgeStyle;rounded=0;orthogonalLoop=1;jettySize=auto;html=1;" edge="1" parent="WIyWlLk6GJQsqaUBKTNV-1" source="zVv1hQ3TjcT8sucu5yJ2-21" target="zVv1hQ3TjcT8sucu5yJ2-23">
          <mxGeometry relative="1" as="geometry" />
        </mxCell>
        <mxCell id="zVv1hQ3TjcT8sucu5yJ2-21" value="Medir la masa de los solidos a los que se les calculara la densidad" style="whiteSpace=wrap;html=1;" vertex="1" parent="WIyWlLk6GJQsqaUBKTNV-1">
          <mxGeometry x="-230" y="353.125" width="120" height="60" as="geometry" />
        </mxCell>
        <mxCell id="zVv1hQ3TjcT8sucu5yJ2-26" value="" style="edgeStyle=orthogonalEdgeStyle;rounded=0;orthogonalLoop=1;jettySize=auto;html=1;" edge="1" parent="WIyWlLk6GJQsqaUBKTNV-1" source="zVv1hQ3TjcT8sucu5yJ2-23" target="zVv1hQ3TjcT8sucu5yJ2-25">
          <mxGeometry relative="1" as="geometry" />
        </mxCell>
        <mxCell id="zVv1hQ3TjcT8sucu5yJ2-23" value="Calcular el volumen mediante formulas en los sólidos regulares o con el método de arquimedes para los irregulares" style="whiteSpace=wrap;html=1;" vertex="1" parent="WIyWlLk6GJQsqaUBKTNV-1">
          <mxGeometry x="-230" y="493.13" width="120" height="96.88" as="geometry" />
        </mxCell>
        <mxCell id="zVv1hQ3TjcT8sucu5yJ2-29" value="" style="edgeStyle=orthogonalEdgeStyle;rounded=0;orthogonalLoop=1;jettySize=auto;html=1;" edge="1" parent="WIyWlLk6GJQsqaUBKTNV-1" source="zVv1hQ3TjcT8sucu5yJ2-25" target="zVv1hQ3TjcT8sucu5yJ2-28">
          <mxGeometry relative="1" as="geometry" />
        </mxCell>
        <mxCell id="zVv1hQ3TjcT8sucu5yJ2-25" value="Calcular la densidad con la masa y volumen obtenido.&amp;nbsp;" style="whiteSpace=wrap;html=1;" vertex="1" parent="WIyWlLk6GJQsqaUBKTNV-1">
          <mxGeometry x="-430" y="486.57" width="120" height="110" as="geometry" />
        </mxCell>
        <mxCell id="zVv1hQ3TjcT8sucu5yJ2-31" value="" style="edgeStyle=orthogonalEdgeStyle;rounded=0;orthogonalLoop=1;jettySize=auto;html=1;" edge="1" parent="WIyWlLk6GJQsqaUBKTNV-1" source="zVv1hQ3TjcT8sucu5yJ2-28" target="zVv1hQ3TjcT8sucu5yJ2-30">
          <mxGeometry relative="1" as="geometry" />
        </mxCell>
        <mxCell id="zVv1hQ3TjcT8sucu5yJ2-28" value="Calcular la capacidad del picnometro mediante el método descrito en la guía&amp;nbsp;" style="rounded=1;whiteSpace=wrap;html=1;" vertex="1" parent="WIyWlLk6GJQsqaUBKTNV-1">
          <mxGeometry x="-630" y="511.56999999999994" width="120" height="60" as="geometry" />
        </mxCell>
        <mxCell id="zVv1hQ3TjcT8sucu5yJ2-33" value="" style="edgeStyle=orthogonalEdgeStyle;rounded=0;orthogonalLoop=1;jettySize=auto;html=1;" edge="1" parent="WIyWlLk6GJQsqaUBKTNV-1" source="zVv1hQ3TjcT8sucu5yJ2-30" target="zVv1hQ3TjcT8sucu5yJ2-32">
          <mxGeometry relative="1" as="geometry" />
        </mxCell>
        <mxCell id="zVv1hQ3TjcT8sucu5yJ2-30" value="llenar el picnometro con el liquido problema" style="rounded=1;whiteSpace=wrap;html=1;" vertex="1" parent="WIyWlLk6GJQsqaUBKTNV-1">
          <mxGeometry x="-830" y="511.56999999999994" width="120" height="60" as="geometry" />
        </mxCell>
        <mxCell id="zVv1hQ3TjcT8sucu5yJ2-35" value="" style="edgeStyle=orthogonalEdgeStyle;rounded=0;orthogonalLoop=1;jettySize=auto;html=1;" edge="1" parent="WIyWlLk6GJQsqaUBKTNV-1" source="zVv1hQ3TjcT8sucu5yJ2-32" target="zVv1hQ3TjcT8sucu5yJ2-34">
          <mxGeometry relative="1" as="geometry" />
        </mxCell>
        <mxCell id="zVv1hQ3TjcT8sucu5yJ2-32" value="Medir la masa del liquido." style="whiteSpace=wrap;html=1;rounded=1;" vertex="1" parent="WIyWlLk6GJQsqaUBKTNV-1">
          <mxGeometry x="-830" y="651.5699999999999" width="120" height="60" as="geometry" />
        </mxCell>
        <mxCell id="zVv1hQ3TjcT8sucu5yJ2-37" value="" style="edgeStyle=orthogonalEdgeStyle;rounded=0;orthogonalLoop=1;jettySize=auto;html=1;" edge="1" parent="WIyWlLk6GJQsqaUBKTNV-1" source="zVv1hQ3TjcT8sucu5yJ2-34" target="zVv1hQ3TjcT8sucu5yJ2-36">
          <mxGeometry relative="1" as="geometry" />
        </mxCell>
        <mxCell id="zVv1hQ3TjcT8sucu5yJ2-34" value="Calcular la densidad del liquido." style="whiteSpace=wrap;html=1;rounded=1;" vertex="1" parent="WIyWlLk6GJQsqaUBKTNV-1">
          <mxGeometry x="-630" y="651.5699999999999" width="120" height="60" as="geometry" />
        </mxCell>
        <mxCell id="zVv1hQ3TjcT8sucu5yJ2-41" value="" style="edgeStyle=orthogonalEdgeStyle;rounded=0;orthogonalLoop=1;jettySize=auto;html=1;" edge="1" parent="WIyWlLk6GJQsqaUBKTNV-1" source="zVv1hQ3TjcT8sucu5yJ2-36" target="zVv1hQ3TjcT8sucu5yJ2-40">
          <mxGeometry relative="1" as="geometry" />
        </mxCell>
        <mxCell id="zVv1hQ3TjcT8sucu5yJ2-36" value="Realizar el informe de la practica." style="whiteSpace=wrap;html=1;rounded=1;" vertex="1" parent="WIyWlLk6GJQsqaUBKTNV-1">
          <mxGeometry x="-430" y="651.5699999999999" width="120" height="60" as="geometry" />
        </mxCell>
        <mxCell id="zVv1hQ3TjcT8sucu5yJ2-40" value="FIN." style="ellipse;whiteSpace=wrap;html=1;rounded=1;" vertex="1" parent="WIyWlLk6GJQsqaUBKTNV-1">
          <mxGeometry x="-230" y="651.5699999999999" width="120" height="60" as="geometry" />
        </mxCell>
        <mxCell id="zVv1hQ3TjcT8sucu5yJ2-42" value="Juan Camilo Montoya Mejia CC 1007614821" style="text;html=1;strokeColor=none;fillColor=none;align=center;verticalAlign=middle;whiteSpace=wrap;rounded=0;" vertex="1" parent="WIyWlLk6GJQsqaUBKTNV-1">
          <mxGeometry x="-710" y="750" width="490" height="30" as="geometry" />
        </mxCell>
      </root>
    </mxGraphModel>
  </diagram>
</mxfile>
